<?xml version="1.0" encoding="UTF-8" standalone="no"?>
<!-- Created with Inkscape (http://www.inkscape.org/) -->

<svg
   xmlns:dc="http://purl.org/dc/elements/1.1/"
   xmlns:cc="http://creativecommons.org/ns#"
   xmlns:rdf="http://www.w3.org/1999/02/22-rdf-syntax-ns#"
   xmlns:svg="http://www.w3.org/2000/svg"
   xmlns="http://www.w3.org/2000/svg"
   xmlns:xlink="http://www.w3.org/1999/xlink"
   xmlns:sodipodi="http://sodipodi.sourceforge.net/DTD/sodipodi-0.dtd"
   xmlns:inkscape="http://www.inkscape.org/namespaces/inkscape"
   width="241.81815"
   height="122.06281"
   id="svg2"
   version="1.1"
   inkscape:version="0.47pre4 r22446"
   sodipodi:docname="logo.svg"
   inkscape:export-filename="/home/mkretz/src/Vc/common/logo.png"
   inkscape:export-xdpi="73.730003"
   inkscape:export-ydpi="73.730003">
  <defs
     id="defs4">
    <inkscape:path-effect
       effect="envelope"
       id="path-effect4882"
       is_visible="true"
       yy="false"
       xx="true"
       bendpath1="m 146.07959,193.81929 235.66727,0"
       bendpath2="m 387.44299,194.3889 -6.83536,26.15194"
       bendpath3="m 146.07959,222.81929 235.66727,0"
       bendpath4="m 168.29451,193.81929 c -7.97459,6.26575 -22.21492,29 -22.21492,29"
       bendpath2-nodetypes="cc"
       bendpath4-nodetypes="cc" />
    <inkscape:path-effect
       effect="envelope"
       id="path-effect4844"
       is_visible="true"
       yy="false"
       xx="true"
       bendpath1="m 146.07959,193.81929 235.66727,0"
       bendpath2="m 381.74686,201.06928 0,16.11113"
       bendpath3="m 146.07959,222.81929 235.66727,0"
       bendpath4="m 146.07959,193.81929 0,29"
       bendpath2-nodetypes="cc" />
    <inkscape:path-effect
       effect="envelope"
       id="path-effect4842"
       is_visible="true"
       yy="false"
       xx="true"
       bendpath1="m 241.97838,238.16038 170.47983,20.94443"
       bendpath2="M 417.29154,261.52147 339.15271,350.7726"
       bendpath3="M 241.97838,353.99483 412.45821,333.0504"
       bendpath4="m 241.97838,238.16038 0,116.64"
       bendpath2-nodetypes="cc"
       bendpath1-nodetypes="cc"
       bendpath3-nodetypes="cc" />
    <inkscape:path-effect
       effect="construct_grid"
       id="path-effect4840"
       is_visible="true"
       nr_x="5"
       nr_y="5" />
    <inkscape:path-effect
       effect="bend_path"
       id="path-effect4796"
       is_visible="true"
       bendpath="m 241.97838,296.48038 170.47983,0"
       prop_scale="1"
       scale_y_rel="false"
       vertical="false" />
    <inkscape:perspective
       sodipodi:type="inkscape:persp3d"
       inkscape:vp_x="0 : 526.18109 : 1"
       inkscape:vp_y="0 : 1000 : 0"
       inkscape:vp_z="744.09448 : 526.18109 : 1"
       inkscape:persp3d-origin="372.04724 : 350.78739 : 1"
       id="perspective10" />
    <inkscape:perspective
       id="perspective3031"
       inkscape:persp3d-origin="0.5 : 0.33333333 : 1"
       inkscape:vp_z="1 : 0.5 : 1"
       inkscape:vp_y="0 : 1000 : 0"
       inkscape:vp_x="0 : 0.5 : 1"
       sodipodi:type="inkscape:persp3d" />
    <linearGradient
       id="linearGradient3216">
      <stop
         style="stop-color:#76bb7e;stop-opacity:1;"
         offset="0"
         id="stop3218" />
      <stop
         style="stop-color:#1d4d22;stop-opacity:1;"
         offset="1"
         id="stop3220" />
    </linearGradient>
    <linearGradient
       id="linearGradient3046">
      <stop
         style="stop-color:#76bb7e;stop-opacity:1;"
         offset="0"
         id="stop3048" />
      <stop
         style="stop-color:#1d4d22;stop-opacity:1;"
         offset="1"
         id="stop3050" />
    </linearGradient>
    <linearGradient
       id="linearGradient3053">
      <stop
         style="stop-color:#76bb7e;stop-opacity:1;"
         offset="0"
         id="stop3055" />
      <stop
         style="stop-color:#1d4d22;stop-opacity:1;"
         offset="1"
         id="stop3057" />
    </linearGradient>
    <linearGradient
       id="linearGradient3060">
      <stop
         style="stop-color:#76bb7e;stop-opacity:1;"
         offset="0"
         id="stop3062" />
      <stop
         style="stop-color:#1d4d22;stop-opacity:1;"
         offset="1"
         id="stop3064" />
    </linearGradient>
    <linearGradient
       id="linearGradient3496">
      <stop
         id="stop3498"
         offset="0"
         style="stop-color:#7697bb;stop-opacity:1;" />
      <stop
         id="stop3500"
         offset="1"
         style="stop-color:#1d334d;stop-opacity:1;" />
    </linearGradient>
    <linearGradient
       id="linearGradient3071">
      <stop
         id="stop3073"
         offset="0"
         style="stop-color:#7697bb;stop-opacity:1;" />
      <stop
         id="stop3075"
         offset="1"
         style="stop-color:#1d334d;stop-opacity:1;" />
    </linearGradient>
    <linearGradient
       id="linearGradient3078">
      <stop
         id="stop3080"
         offset="0"
         style="stop-color:#7697bb;stop-opacity:1;" />
      <stop
         id="stop3082"
         offset="1"
         style="stop-color:#1d334d;stop-opacity:1;" />
    </linearGradient>
    <linearGradient
       id="linearGradient3085">
      <stop
         id="stop3087"
         offset="0"
         style="stop-color:#7697bb;stop-opacity:1;" />
      <stop
         id="stop3089"
         offset="1"
         style="stop-color:#1d334d;stop-opacity:1;" />
    </linearGradient>
    <linearGradient
       id="linearGradient3378">
      <stop
         style="stop-color:#76b7bb;stop-opacity:1;"
         offset="0"
         id="stop3380" />
      <stop
         style="stop-color:#1d4a4d;stop-opacity:1;"
         offset="1"
         id="stop3382" />
    </linearGradient>
    <linearGradient
       id="linearGradient3096">
      <stop
         style="stop-color:#76b7bb;stop-opacity:1;"
         offset="0"
         id="stop3098" />
      <stop
         style="stop-color:#1d4a4d;stop-opacity:1;"
         offset="1"
         id="stop3100" />
    </linearGradient>
    <linearGradient
       id="linearGradient3103">
      <stop
         style="stop-color:#76b7bb;stop-opacity:1;"
         offset="0"
         id="stop3105" />
      <stop
         style="stop-color:#1d4a4d;stop-opacity:1;"
         offset="1"
         id="stop3107" />
    </linearGradient>
    <linearGradient
       id="linearGradient3110">
      <stop
         style="stop-color:#76b7bb;stop-opacity:1;"
         offset="0"
         id="stop3112" />
      <stop
         style="stop-color:#1d4a4d;stop-opacity:1;"
         offset="1"
         id="stop3114" />
    </linearGradient>
    <linearGradient
       id="linearGradient3117">
      <stop
         style="stop-color:#76b7bb;stop-opacity:1;"
         offset="0"
         id="stop3119" />
      <stop
         style="stop-color:#1d4a4d;stop-opacity:1;"
         offset="1"
         id="stop3121" />
    </linearGradient>
    <linearGradient
       id="linearGradient3375">
      <stop
         style="stop-color:#000000;stop-opacity:0.76862746;"
         offset="0"
         id="stop3377" />
      <stop
         id="stop3383"
         offset="0.39705881"
         style="stop-color:#000000;stop-opacity:0;" />
      <stop
         style="stop-color:#000000;stop-opacity:0;"
         offset="0.60000002"
         id="stop4996" />
      <stop
         style="stop-color:#000000;stop-opacity:0.76862746;"
         offset="1"
         id="stop3379" />
    </linearGradient>
    <linearGradient
       id="linearGradient3130">
      <stop
         style="stop-color:#000000;stop-opacity:0.76862746;"
         offset="0"
         id="stop3132" />
      <stop
         id="stop3134"
         offset="0.39705881"
         style="stop-color:#000000;stop-opacity:0;" />
      <stop
         style="stop-color:#000000;stop-opacity:0;"
         offset="0.60000002"
         id="stop3136" />
      <stop
         style="stop-color:#000000;stop-opacity:0.76862746;"
         offset="1"
         id="stop3138" />
    </linearGradient>
    <linearGradient
       id="linearGradient3141">
      <stop
         style="stop-color:#000000;stop-opacity:0.76862746;"
         offset="0"
         id="stop3143" />
      <stop
         id="stop3145"
         offset="0.39705881"
         style="stop-color:#000000;stop-opacity:0;" />
      <stop
         style="stop-color:#000000;stop-opacity:0;"
         offset="0.60000002"
         id="stop3147" />
      <stop
         style="stop-color:#000000;stop-opacity:0.76862746;"
         offset="1"
         id="stop3149" />
    </linearGradient>
    <linearGradient
       id="linearGradient3152">
      <stop
         style="stop-color:#000000;stop-opacity:0.76862746;"
         offset="0"
         id="stop3154" />
      <stop
         id="stop3156"
         offset="0.39705881"
         style="stop-color:#000000;stop-opacity:0;" />
      <stop
         style="stop-color:#000000;stop-opacity:0;"
         offset="0.60000002"
         id="stop3158" />
      <stop
         style="stop-color:#000000;stop-opacity:0.76862746;"
         offset="1"
         id="stop3160" />
    </linearGradient>
    <marker
       inkscape:stockid="Arrow1Mend"
       orient="auto"
       refY="0"
       refX="0"
       id="Arrow1Mend"
       style="overflow:visible">
      <path
         id="path3525"
         d="M 0,0 5,-5 -12.5,0 5,5 0,0 z"
         style="fill-rule:evenodd;stroke:#000000;stroke-width:1pt;marker-start:none"
         transform="matrix(-0.4,0,0,-0.4,-4,0)" />
    </marker>
    <marker
       inkscape:stockid="Arrow1Mend"
       orient="auto"
       refY="0"
       refX="0"
       id="marker3164"
       style="overflow:visible">
      <path
         id="path3166"
         d="M 0,0 5,-5 -12.5,0 5,5 0,0 z"
         style="fill-rule:evenodd;stroke:#000000;stroke-width:1pt;marker-start:none"
         transform="matrix(-0.4,0,0,-0.4,-4,0)" />
    </marker>
    <marker
       inkscape:stockid="Arrow1Mend"
       orient="auto"
       refY="0"
       refX="0"
       id="marker3168"
       style="overflow:visible">
      <path
         id="path3170"
         d="M 0,0 5,-5 -12.5,0 5,5 0,0 z"
         style="fill-rule:evenodd;stroke:#000000;stroke-width:1pt;marker-start:none"
         transform="matrix(-0.4,0,0,-0.4,-4,0)" />
    </marker>
    <marker
       inkscape:stockid="Arrow1Mend"
       orient="auto"
       refY="0"
       refX="0"
       id="marker3172"
       style="overflow:visible">
      <path
         id="path3174"
         d="M 0,0 5,-5 -12.5,0 5,5 0,0 z"
         style="fill-rule:evenodd;stroke:#000000;stroke-width:1pt;marker-start:none"
         transform="matrix(-0.4,0,0,-0.4,-4,0)" />
    </marker>
    <marker
       inkscape:stockid="Arrow1Mend"
       orient="auto"
       refY="0"
       refX="0"
       id="marker3176"
       style="overflow:visible">
      <path
         id="path3178"
         d="M 0,0 5,-5 -12.5,0 5,5 0,0 z"
         style="fill-rule:evenodd;stroke:#000000;stroke-width:1pt;marker-start:none"
         transform="matrix(-0.4,0,0,-0.4,-4,0)" />
    </marker>
    <marker
       inkscape:stockid="Arrow1Mend"
       orient="auto"
       refY="0"
       refX="0"
       id="marker3180"
       style="overflow:visible">
      <path
         id="path3182"
         d="M 0,0 5,-5 -12.5,0 5,5 0,0 z"
         style="fill-rule:evenodd;stroke:#000000;stroke-width:1pt;marker-start:none"
         transform="matrix(-0.4,0,0,-0.4,-4,0)" />
    </marker>
    <marker
       inkscape:stockid="Arrow1Mend"
       orient="auto"
       refY="0"
       refX="0"
       id="marker3184"
       style="overflow:visible">
      <path
         id="path3186"
         d="M 0,0 5,-5 -12.5,0 5,5 0,0 z"
         style="fill-rule:evenodd;stroke:#000000;stroke-width:1pt;marker-start:none"
         transform="matrix(-0.4,0,0,-0.4,-4,0)" />
    </marker>
    <marker
       inkscape:stockid="Arrow1Mend"
       orient="auto"
       refY="0"
       refX="0"
       id="marker3188"
       style="overflow:visible">
      <path
         id="path3190"
         d="M 0,0 5,-5 -12.5,0 5,5 0,0 z"
         style="fill-rule:evenodd;stroke:#000000;stroke-width:1pt;marker-start:none"
         transform="matrix(-0.4,0,0,-0.4,-4,0)" />
    </marker>
    <linearGradient
       inkscape:collect="always"
       xlink:href="#linearGradient3216"
       id="linearGradient4856"
       gradientUnits="userSpaceOnUse"
       gradientTransform="matrix(6.5463131,0,0,3.2222224,-2104.4231,-3495.3041)"
       x1="370.28174"
       y1="1144.4003"
       x2="370.28174"
       y2="1154.4003" />
    <filter
       inkscape:collect="always"
       id="filter4916"
       color-interpolation-filters="sRGB">
      <feGaussianBlur
         inkscape:collect="always"
         stdDeviation="2.2757062"
         id="feGaussianBlur4918" />
    </filter>
    <clipPath
       clipPathUnits="userSpaceOnUse"
       id="clipPath5210">
      <g
         inkscape:path-effect="#path-effect4882"
         id="g5212"
         transform="matrix(1,0,1.2332294,3.2230582,-221.83638,-409.36349)">
        <path
           inkscape:original-d="m 204.99641,193.81929 58.91682,0 0,29 -58.91682,0 0,-29 z m -58.91682,0 58.91681,0 0,29 -58.91681,0 0,-29 z m 117.83365,0 58.91681,0 0,29 -58.91681,0 0,-29 z m 58.91681,0 58.91681,0 0,29 -58.91681,0 0,-29 z"
           id="path5214"
           style="fill:url(#linearGradient5234);fill-opacity:1;fill-rule:nonzero;stroke:#000000;stroke-width:0.33420828;stroke-linecap:round;stroke-linejoin:miter;stroke-miterlimit:4;stroke-opacity:1;stroke-dasharray:none;stroke-dashoffset:0"
           d="m 207.32928,217.64317 c 14.73042,5.36476 31.21631,8.07643 49.45766,8.13501 4.83407,-3.46856 6.6601,-4.1123 5.25836,-2.21232 -0.41965,1.45674 -1.15761,3.42173 -2.25959,5.85414 0,0 0,0 0,0 -0.87761,2.01104 -1.78064,4.09688 -2.71399,6.25299 0,0 0,0 0,0 -0.28621,0.66407 -0.55325,1.30086 -0.80036,1.91084 -0.068,0.16781 -0.12374,0.31628 -0.16696,0.44552 -1.9e-4,0.005 1.4e-4,0.009 9.9e-4,0.0118 -19.53397,0.18033 -38.46952,-1.01857 -56.80665,-3.5967 0.003,-0.007 0.007,-0.0151 0.0107,-0.0235 0.084,-0.16325 0.17759,-0.34073 0.28059,-0.53259 0.37454,-0.69777 0.76618,-1.41423 1.17375,-2.15008 0,-1e-5 0,-1e-5 0,-1e-5 1.3242,-2.38649 2.64203,-4.70974 3.96082,-6.96292 0,0 1e-5,0 1e-5,0 1.60403,-2.70112 2.9607,-5.03544 4.13858,-6.94172 1.77553,-2.10814 1.15441,-2.31211 -1.53388,-0.19042 z m -38.92485,-24.05354 c 11.21947,10.67093 24.19442,18.68878 38.92484,24.05353 2.68829,-2.12168 3.30941,-1.91771 1.53388,0.19043 -1.17788,1.90628 -2.53455,4.2406 -4.13858,6.94172 0,0 0,0 0,0 -1.3188,2.25318 -2.63663,4.57643 -3.96083,6.96292 0,0 0,0 0,0 -0.40757,0.73586 -0.79921,1.45232 -1.17375,2.15009 -0.103,0.19186 -0.1966,0.36934 -0.28059,0.53259 -0.004,0.008 -0.008,0.0163 -0.0107,0.0235 -18.33713,-2.57813 -36.07583,-6.53549 -53.21612,-11.87207 0.0115,-0.0181 0.0229,-0.0363 0.0344,-0.0544 0.15556,-0.24593 0.31181,-0.49136 0.46846,-0.73647 0.57035,-0.8924 1.14641,-1.78104 1.72665,-2.66684 0,0 1e-5,0 1e-5,0 1.87741,-2.8661 3.79843,-5.70401 5.77285,-8.50465 0,0 0,0 0,0 2.32407,-3.29669 4.71626,-6.54972 7.26796,-9.67742 2.1423,-2.62741 4.34638,-5.26234 7.05148,-7.34294 z m 88.38252,32.18855 c 18.24136,0.0586 38.23819,-2.53591 59.99048,-7.7835 3.73221,-1.96001 5.14287,-1.86821 4.12196,0.13469 -0.27704,1.77908 -0.81307,3.92412 -1.63099,6.4147 0,0 0,0 0,0 -0.65086,2.07419 -1.32749,4.19989 -2.03236,6.37483 0,0 0,0 0,0 -0.21615,0.67046 -0.41843,1.32008 -0.60646,1.94909 -0.0518,0.17297 -0.0943,0.33139 -0.1276,0.47529 -2e-4,0.007 -1e-5,0.0134 5.6e-4,0.0192 -20.7308,2.93878 -40.86318,4.49833 -60.39714,4.67866 -8.5e-4,-0.003 -0.001,-0.007 -9.9e-4,-0.0118 0.0432,-0.12924 0.0989,-0.27771 0.16696,-0.44552 0.24711,-0.60998 0.51415,-1.24677 0.80036,-1.91084 0,0 0,0 0,0 0.93335,-2.15611 1.83638,-4.24195 2.71399,-6.25299 0,0 0,0 0,0 1.10198,-2.43241 1.83994,-4.3974 2.25959,-5.85414 1.40174,-1.89998 -0.4243,-1.25624 -5.25836,2.21232 z m 59.99048,-7.7835 c 21.7523,-5.24758 45.26006,-13.14826 70.5233,-23.70201 -0.61726,2.40395 -1.24228,4.81455 -1.87533,7.23146 -0.75002,2.87329 -1.50092,5.74777 -2.25277,8.62338 0,0 0,0 0,0 -0.63854,2.44266 -1.27718,4.88548 -1.91592,7.32845 0,0 0,0 0,1e-5 -0.19741,0.75502 -0.39477,1.50997 -0.59208,2.26485 -0.0542,0.20734 -0.10836,0.41463 -0.16249,0.62187 -0.004,0.0153 -0.008,0.0305 -0.0119,0.0458 -21.92764,5.69723 -43.25686,10.01523 -63.98766,12.95401 -5.7e-4,-0.006 -7.6e-4,-0.0122 -5.6e-4,-0.0192 0.0333,-0.1439 0.0758,-0.30232 0.1276,-0.47529 0.18803,-0.62901 0.39031,-1.27863 0.60646,-1.94909 0,0 0,0 0,0 0.70487,-2.17494 1.3815,-4.30064 2.03236,-6.37483 0,0 0,0 0,0 0.81792,-2.49058 1.35395,-4.63562 1.63099,-6.4147 1.02091,-2.0029 -0.38975,-2.0947 -4.12196,-0.13469 z" />
        <g
           id="g5216"
           transform="translate(0,0.46399984)">
          <g
             style="font-size:16px;font-style:normal;font-variant:normal;font-weight:normal;font-stretch:normal;text-align:center;line-height:125%;writing-mode:lr-tb;text-anchor:middle;fill:#ffffff;fill-opacity:1;stroke:none;font-family:LMRoman9;-inkscape-font-specification:LMRoman9"
             id="g5218">
            <path
               inkscape:original-d="m 179.25,211.89529 0,-0.896 -0.448,0 0,0.88 c 0,0.176 0,0.976 -0.576,0.976 -0.576,0 -0.576,-0.768 -0.576,-1.024 l 0,-2.8 c 0,-0.912 0,-1.456 -0.72,-2.112 -0.592,-0.528 -1.36,-0.768 -2.16,-0.768 -1.344,0 -2.464,0.672 -2.464,1.696 0,0.496 0.336,0.768 0.752,0.768 0.432,0 0.736,-0.32 0.736,-0.736 0,-0.688 -0.72,-0.768 -0.72,-0.768 0.432,-0.416 1.2,-0.56 1.664,-0.56 0.816,0 1.728,0.608 1.728,2.016 l 0,0.528 c -0.864,0.032 -2.064,0.112 -3.136,0.624 -1.152,0.56 -1.504,1.392 -1.504,2.032 0,1.312 1.552,1.744 2.624,1.744 1.328,0 1.936,-0.88 2.16,-1.328 0.08,0.672 0.544,1.248 1.232,1.248 0.4,0 1.408,-0.24 1.408,-1.52 m -2.784,-0.832 c 0,1.552 -1.2,2.032 -1.904,2.032 -0.752,0 -1.456,-0.544 -1.456,-1.344 0,-1.056 0.912,-2.176 3.36,-2.272 l 0,1.584"
               d="m 181.78351,220.17363 c 0.0892,-0.13929 0.1785,-0.2784 0.26785,-0.41732 0.0862,-0.13305 0.17206,-0.26557 0.25767,-0.39756 -0.12881,-0.0346 -0.25757,-0.0693 -0.3863,-0.10404 -0.0859,0.1322 -0.17201,0.26492 -0.25842,0.39817 -0.0865,0.13431 -0.17296,0.26879 -0.25934,0.40345 -0.10271,0.1601 -0.56889,0.8908 -1.06921,0.75927 -0.50031,-0.13154 -0.0493,-0.8361 0.10128,-1.06989 0.0777,-0.12057 0.1554,-0.24101 0.23317,-0.36131 0.48002,-0.73766 0.95211,-1.4599 1.41753,-2.16559 0.52972,-0.80319 0.83699,-1.26475 0.60655,-2.00328 -0.19596,-0.5976 -0.69934,-0.99762 -1.36591,-1.20914 -1.11983,-0.35535 -2.44634,-0.0897 -3.06115,0.81539 -0.29779,0.4384 -0.17923,0.77089 0.17186,0.87815 0.3646,0.11139 0.8126,-0.0962 1.05922,-0.46134 0.40786,-0.60381 -0.14854,-0.85893 -0.14854,-0.85893 0.60798,-0.24692 1.33207,-0.16462 1.71971,-0.0428 0.68172,0.21419 1.10304,0.94755 0.28168,2.18314 -0.10268,0.15445 -0.20564,0.30968 -0.3089,0.4657 -0.75388,-0.18435 -1.81758,-0.41643 -3.03797,-0.22192 -1.10912,0.18347 -1.86122,0.69567 -2.30985,1.21466 -0.0833,0.0966 -0.1558,0.19318 -0.21775,0.28756 -0.80335,1.22389 0.27629,2.01045 1.20513,2.26385 1.15067,0.31393 2.19997,-0.36108 2.6586,-0.71992 -0.32859,0.63602 -0.26451,1.2761 0.33427,1.43266 0.34812,0.091 1.36418,0.0937 2.10882,-1.06894 z m -1.90932,-1.41163 c -0.079,0.12083 -0.16102,0.23292 -0.2453,0.33676 -0.89789,1.10973 -2.05359,1.23808 -2.61094,1.0851 -0.65049,-0.17855 -0.93001,-0.85809 -0.44441,-1.60077 0.0638,-0.0976 0.13575,-0.1934 0.21572,-0.28635 0.73195,-0.84892 2.09687,-1.43167 4.0272,-0.96943 -0.31114,0.47142 -0.62511,0.94976 -0.94227,1.43469 z"
               style="line-height:125%;font-family:LMRoman9;-inkscape-font-specification:LMRoman9"
               id="path5220" />
          </g>
          <g
             style="font-size:16px;font-style:normal;font-variant:normal;font-weight:normal;font-stretch:normal;text-align:center;line-height:125%;writing-mode:lr-tb;text-anchor:middle;fill:#ffffff;fill-opacity:1;stroke:none;font-family:LMRoman9;-inkscape-font-specification:LMRoman9"
             id="g5222">
            <path
               inkscape:original-d="m 238.50282,209.86329 c 0,-2 -1.584,-3.616 -3.504,-3.616 -1.088,0 -1.84,0.56 -2.224,0.992 l 0,-5.024 -2.368,0.176 0,0.496 c 1.088,0 1.232,0.112 1.232,0.896 l 0,9.536 0.448,0 0.592,-0.976 c 0.496,0.704 1.296,1.152 2.16,1.152 1.904,0 3.664,-1.536 3.664,-3.632 m -1.376,-0.016 c 0,0.752 -0.096,1.6 -0.512,2.24 -0.352,0.512 -1.008,1.008 -1.856,1.008 -0.72,0 -1.328,-0.384 -1.712,-0.976 -0.224,-0.336 -0.224,-0.352 -0.224,-0.656 l 0,-3.248 c 0,-0.304 0,-0.32 0.176,-0.576 0.544,-0.736 1.328,-0.992 1.936,-0.992 0.688,0 1.328,0.384 1.744,1.056 0.416,0.688 0.448,1.632 0.448,2.144"
               d="m 236.10534,227.38529 c 0.74114,-1.47864 -0.2634,-2.59219 -2.02917,-2.75749 -1.0006,-0.0937 -1.86578,0.19599 -2.36313,0.45045 0.55875,-1.12139 1.03434,-2.11475 1.43513,-2.97263 -0.72551,-0.0503 -1.45018,-0.10312 -2.17401,-0.15836 -0.0417,0.0866 -0.0841,0.17456 -0.12723,0.26379 0.97954,0.11711 1.08718,0.18081 0.87388,0.62377 -0.69394,1.44114 -1.56569,3.19001 -2.64502,5.22004 -0.25323,0.48801 -0.50722,0.98008 -0.76204,1.47614 0.13981,0.0125 0.27966,0.0249 0.41955,0.0372 0.31646,-0.24049 0.63224,-0.47976 0.94734,-0.71781 0.181,0.59106 0.75271,1.00798 1.56542,1.07252 1.30191,0.10339 2.85592,-0.44722 3.91094,-1.3631 0.40595,-0.35315 0.73625,-0.75133 0.94834,-1.17448 z m -1.28002,-0.1107 c -0.19333,0.38293 -0.4556,0.80966 -0.81698,1.19901 -0.15968,0.17267 -0.33825,0.33571 -0.53853,0.48123 -0.53044,0.37093 -1.34344,0.71213 -2.1401,0.64809 -0.67642,-0.0544 -1.09329,-0.40444 -1.2153,-0.89725 -0.0749,-0.2802 -0.0683,-0.29276 0.0533,-0.52847 0.004,-0.007 0.007,-0.0145 0.0112,-0.0218 0.45073,-0.85233 0.86442,-1.65463 1.24327,-2.40493 0.10731,-0.21251 0.11271,-0.22319 0.36214,-0.3819 0.75215,-0.45291 1.54871,-0.54186 2.10862,-0.48987 0.63359,0.0588 1.10714,0.35466 1.27055,0.842 0.15812,0.49816 -0.14668,1.17454 -0.33821,1.55387 z"
               id="path5224" />
          </g>
          <g
             style="font-size:16px;font-style:normal;font-variant:normal;font-weight:normal;font-stretch:normal;text-align:center;line-height:125%;writing-mode:lr-tb;text-anchor:middle;fill:#ffffff;fill-opacity:1;stroke:none;font-family:LMRoman9;-inkscape-font-specification:LMRoman9"
             id="g5226">
            <path
               inkscape:original-d="m 296.51565,211.41529 c 0,-0.192 -0.176,-0.192 -0.224,-0.192 -0.176,0 -0.176,0.032 -0.272,0.304 -0.36799,1.104 -1.264,1.52 -2.08,1.52 -1.02399,0 -2.336,-0.832 -2.336,-3.2 0,-2.496 1.28001,-3.248 2.24,-3.248 0.208,0 1.07201,0.032 1.664,0.432 -0.33599,0.064 -0.656,0.288 -0.656,0.752 0,0.416 0.32001,0.736 0.736,0.736 0.416,0 0.752,-0.272 0.752,-0.768 0,-0.992 -1.12,-1.6 -2.528,-1.6 -2.04799,0 -3.584,1.712 -3.584,3.712 0,2.064 1.66401,3.632 3.552,3.632 2.224,0 2.736,-1.936 2.736,-2.08"
               d="m 292.16059,227.88324 c 0.0551,-0.14579 -0.12359,-0.12921 -0.17221,-0.12485 -0.15575,0.014 -0.18194,0.0336 -0.30333,0.18204 0,0 0,0 0,0 -0.017,0.021 -0.036,0.0446 -0.0575,0.0712 -0.66942,0.85153 -1.69402,1.24528 -2.5203,1.31358 -0.75869,0.0627 -1.54735,-0.20243 -1.66152,-1.03079 -0.0331,-0.31199 0.0209,-0.69533 0.18543,-1.14798 0.32316,-0.88912 0.80957,-1.43462 1.35129,-1.78988 0.54172,-0.35526 1.1356,-0.51607 1.6175,-0.55796 0.20883,-0.0182 1.07245,-0.0774 1.59167,0.12169 -0.35056,0.0714 -0.71419,0.23988 -0.81117,0.54367 -0.0869,0.27237 0.16265,0.46152 0.5822,0.42385 0.41956,-0.0377 0.82143,-0.25558 0.92392,-0.58055 0.20497,-0.64994 -0.82541,-0.90371 -2.23827,-0.78031 -2.05508,0.1795 -3.88041,1.31162 -4.40296,2.73623 -0.14871,0.40543 -0.17183,0.78905 -0.0874,1.12953 0.2471,0.87023 1.27831,1.39586 2.66347,1.28222 2.17884,-0.17876 3.23063,-1.58846 3.33172,-1.77638 0.004,-0.007 0.006,-0.0117 0.007,-0.0153 z"
               id="path5228" />
          </g>
          <g
             style="font-size:16px;font-style:normal;font-variant:normal;font-weight:normal;font-stretch:normal;text-align:center;line-height:125%;writing-mode:lr-tb;text-anchor:middle;fill:#ffffff;fill-opacity:1;stroke:none;font-family:LMRoman9;-inkscape-font-specification:LMRoman9"
             id="g5230">
            <path
               inkscape:original-d="m 356.33644,213.31929 0,-0.496 c -1.088,0 -1.232,-0.112 -1.232,-0.896 l 0,-9.712 -2.368,0.176 0,0.496 c 1.088,0 1.232,0.112 1.232,0.896 l 0,3.408 c -0.08,-0.096 -0.8,-0.944 -2.048,-0.944 -1.968,0 -3.68,1.568 -3.68,3.632 0,2 1.6,3.616 3.504,3.616 1.168,0 1.888,-0.688 2.176,-1.024 l 0,1.024 2.416,-0.176 m -2.416,-1.92 c 0,0.288 0,0.336 -0.24,0.672 -0.496,0.72 -1.232,1.024 -1.872,1.024 -0.688,0 -1.328,-0.384 -1.744,-1.056 -0.416,-0.688 -0.448,-1.632 -0.448,-2.144 0,-0.752 0.096,-1.6 0.512,-2.24 0.352,-0.512 1.008,-1.008 1.856,-1.008 0.672,0 1.312,0.336 1.744,0.944 0.192,0.256 0.192,0.272 0.192,0.576 l 0,3.232"
               d="m 354.63725,219.09004 c 0.0381,-0.13776 0.0761,-0.27543 0.11409,-0.41301 -1.18573,0.27434 -1.31558,0.215 -1.1364,-0.43343 0.0375,-0.13567 0.0749,-0.27124 0.11229,-0.40671 0.72706,-2.56343 1.31249,-4.95572 1.76557,-7.16856 -0.87604,0.27021 -1.75026,0.53669 -2.6227,0.79949 -0.0237,0.11717 -0.0478,0.2349 -0.0723,0.35319 1.18971,-0.30193 1.3344,-0.26732 1.20911,0.30806 -0.18155,0.83373 -0.38205,1.69268 -0.602,2.57642 -0.0685,-0.0538 -0.69383,-0.51519 -2.04972,-0.19183 -2.13812,0.50992 -4.25556,2.08518 -4.71028,3.73062 -0.12279,0.44432 -0.1107,0.84268 0.0148,1.1777 0,0 0,0 0,0 0.33773,0.85509 1.45612,1.26459 2.94521,0.9373 1.26638,-0.27835 2.20774,-1.02332 2.5978,-1.37172 -0.0783,0.28183 -0.15683,0.5641 -0.23561,0.84681 0.88885,-0.2452 1.77888,-0.4933 2.67009,-0.74433 z m -2.1891,-0.98646 c -0.003,0.0103 -0.006,0.0202 -0.009,0.0299 0,0 0,0 0,0 -0.059,0.21143 -0.0829,0.26169 -0.40602,0.58333 -0.70363,0.71573 -1.573,1.14481 -2.26692,1.29799 -0.74595,0.16467 -1.35008,-1.2e-4 -1.64616,-0.44986 -0.0795,-0.12582 -0.124,-0.27356 -0.14439,-0.43023 -0.0489,-0.425 0.0692,-0.90734 0.15144,-1.20592 0.16586,-0.60228 0.44397,-1.28844 1.01925,-1.88494 0.48101,-0.48197 1.28341,-1.02404 2.20439,-1.24257 0.72984,-0.17318 1.36461,-0.0848 1.7144,0.27875 0.15827,0.15047 0.15518,0.163 0.0933,0.40324 -0.21915,0.85136 -0.45595,1.72493 -0.71081,2.62035 z"
               id="path5232" />
          </g>
        </g>
      </g>
    </clipPath>
    <linearGradient
       inkscape:collect="always"
       xlink:href="#linearGradient3216"
       id="linearGradient5234"
       gradientUnits="userSpaceOnUse"
       gradientTransform="matrix(6.5463131,0,0,3.2222224,-2104.4231,-3495.3041)"
       x1="370.28174"
       y1="1144.4003"
       x2="370.28174"
       y2="1154.4003" />
  </defs>
  <sodipodi:namedview
     id="base"
     pagecolor="#ffffff"
     bordercolor="#666666"
     borderopacity="1.0"
     inkscape:pageopacity="0.0"
     inkscape:pageshadow="2"
     inkscape:zoom="1.5083649"
     inkscape:cx="153.94925"
     inkscape:cy="-42.840006"
     inkscape:document-units="px"
     inkscape:current-layer="layer1"
     showgrid="false"
     inkscape:window-width="1920"
     inkscape:window-height="1056"
     inkscape:window-x="1393"
     inkscape:window-y="0"
     inkscape:window-maximized="1" />
  <metadata
     id="metadata7">
    <rdf:RDF>
      <cc:Work
         rdf:about="">
        <dc:format>image/svg+xml</dc:format>
        <dc:type
           rdf:resource="http://purl.org/dc/dcmitype/StillImage" />
        <dc:title></dc:title>
      </cc:Work>
    </rdf:RDF>
  </metadata>
  <g
     inkscape:label="Layer 1"
     inkscape:groupmode="layer"
     id="layer1"
     transform="translate(-145.78258,-116.29602)">
    <g
       id="g4870"
       inkscape:path-effect="#path-effect4882">
      <path
         d="m 207.32928,217.64317 c 14.73042,5.36476 31.21631,8.07643 49.45766,8.13501 4.83407,-3.46856 6.6601,-4.1123 5.25836,-2.21232 -0.41965,1.45674 -1.15761,3.42173 -2.25959,5.85414 0,0 0,0 0,0 -0.87761,2.01104 -1.78064,4.09688 -2.71399,6.25299 0,0 0,0 0,0 -0.28621,0.66407 -0.55325,1.30086 -0.80036,1.91084 -0.068,0.16781 -0.12374,0.31628 -0.16696,0.44552 -1.9e-4,0.005 1.4e-4,0.009 9.9e-4,0.0118 -19.53397,0.18033 -38.46952,-1.01857 -56.80665,-3.5967 0.003,-0.007 0.007,-0.0151 0.0107,-0.0235 0.084,-0.16325 0.17759,-0.34073 0.28059,-0.53259 0.37454,-0.69777 0.76618,-1.41423 1.17375,-2.15008 0,-1e-5 0,-1e-5 0,-1e-5 1.3242,-2.38649 2.64203,-4.70974 3.96082,-6.96292 0,0 1e-5,0 1e-5,0 1.60403,-2.70112 2.9607,-5.03544 4.13858,-6.94172 1.77553,-2.10814 1.15441,-2.31211 -1.53388,-0.19042 z m -38.92485,-24.05354 c 11.21947,10.67093 24.19442,18.68878 38.92484,24.05353 2.68829,-2.12168 3.30941,-1.91771 1.53388,0.19043 -1.17788,1.90628 -2.53455,4.2406 -4.13858,6.94172 0,0 0,0 0,0 -1.3188,2.25318 -2.63663,4.57643 -3.96083,6.96292 0,0 0,0 0,0 -0.40757,0.73586 -0.79921,1.45232 -1.17375,2.15009 -0.103,0.19186 -0.1966,0.36934 -0.28059,0.53259 -0.004,0.008 -0.008,0.0163 -0.0107,0.0235 -18.33713,-2.57813 -36.07583,-6.53549 -53.21612,-11.87207 0.0115,-0.0181 0.0229,-0.0363 0.0344,-0.0544 0.15556,-0.24593 0.31181,-0.49136 0.46846,-0.73647 0.57035,-0.8924 1.14641,-1.78104 1.72665,-2.66684 0,0 1e-5,0 1e-5,0 1.87741,-2.8661 3.79843,-5.70401 5.77285,-8.50465 0,0 0,0 0,0 2.32407,-3.29669 4.71626,-6.54972 7.26796,-9.67742 2.1423,-2.62741 4.34638,-5.26234 7.05148,-7.34294 z m 88.38252,32.18855 c 18.24136,0.0586 38.23819,-2.53591 59.99048,-7.7835 3.73221,-1.96001 5.14287,-1.86821 4.12196,0.13469 -0.27704,1.77908 -0.81307,3.92412 -1.63099,6.4147 0,0 0,0 0,0 -0.65086,2.07419 -1.32749,4.19989 -2.03236,6.37483 0,0 0,0 0,0 -0.21615,0.67046 -0.41843,1.32008 -0.60646,1.94909 -0.0518,0.17297 -0.0943,0.33139 -0.1276,0.47529 -2e-4,0.007 -1e-5,0.0134 5.6e-4,0.0192 -20.7308,2.93878 -40.86318,4.49833 -60.39714,4.67866 -8.5e-4,-0.003 -0.001,-0.007 -9.9e-4,-0.0118 0.0432,-0.12924 0.0989,-0.27771 0.16696,-0.44552 0.24711,-0.60998 0.51415,-1.24677 0.80036,-1.91084 0,0 0,0 0,0 0.93335,-2.15611 1.83638,-4.24195 2.71399,-6.25299 0,0 0,0 0,0 1.10198,-2.43241 1.83994,-4.3974 2.25959,-5.85414 1.40174,-1.89998 -0.4243,-1.25624 -5.25836,2.21232 z m 59.99048,-7.7835 c 21.7523,-5.24758 45.26006,-13.14826 70.5233,-23.70201 -0.61726,2.40395 -1.24228,4.81455 -1.87533,7.23146 -0.75002,2.87329 -1.50092,5.74777 -2.25277,8.62338 0,0 0,0 0,0 -0.63854,2.44266 -1.27718,4.88548 -1.91592,7.32845 0,0 0,0 0,1e-5 -0.19741,0.75502 -0.39477,1.50997 -0.59208,2.26485 -0.0542,0.20734 -0.10836,0.41463 -0.16249,0.62187 -0.004,0.0153 -0.008,0.0305 -0.0119,0.0458 -21.92764,5.69723 -43.25686,10.01523 -63.98766,12.95401 -5.7e-4,-0.006 -7.6e-4,-0.0122 -5.6e-4,-0.0192 0.0333,-0.1439 0.0758,-0.30232 0.1276,-0.47529 0.18803,-0.62901 0.39031,-1.27863 0.60646,-1.94909 0,0 0,0 0,0 0.70487,-2.17494 1.3815,-4.30064 2.03236,-6.37483 0,0 0,0 0,0 0.81792,-2.49058 1.35395,-4.63562 1.63099,-6.4147 1.02091,-2.0029 -0.38975,-2.0947 -4.12196,-0.13469 z"
         style="fill:url(#linearGradient4856);fill-opacity:1;fill-rule:nonzero;stroke:#000000;stroke-width:0.60000002;stroke-linecap:round;stroke-linejoin:miter;stroke-miterlimit:4;stroke-opacity:1;stroke-dasharray:none;stroke-dashoffset:0"
         id="rect3456"
         inkscape:original-d="m 204.99641,193.81929 58.91682,0 0,29 -58.91682,0 0,-29 z m -58.91682,0 58.91681,0 0,29 -58.91681,0 0,-29 z m 117.83365,0 58.91681,0 0,29 -58.91681,0 0,-29 z m 58.91681,0 58.91681,0 0,29 -58.91681,0 0,-29 z" />
      <g
         transform="translate(0,0.46399984)"
         id="g3098">
        <g
           id="text3508"
           style="font-size:16px;font-style:normal;font-variant:normal;font-weight:normal;font-stretch:normal;text-align:center;line-height:125%;writing-mode:lr-tb;text-anchor:middle;fill:#ffffff;fill-opacity:1;stroke:none;font-family:LMRoman9;-inkscape-font-specification:LMRoman9">
          <path
             id="path4859"
             style="line-height:125%;font-family:LMRoman9;-inkscape-font-specification:LMRoman9"
             d="m 181.78351,220.17363 c 0.0892,-0.13929 0.1785,-0.2784 0.26785,-0.41732 0.0862,-0.13305 0.17206,-0.26557 0.25767,-0.39756 -0.12881,-0.0346 -0.25757,-0.0693 -0.3863,-0.10404 -0.0859,0.1322 -0.17201,0.26492 -0.25842,0.39817 -0.0865,0.13431 -0.17296,0.26879 -0.25934,0.40345 -0.10271,0.1601 -0.56889,0.8908 -1.06921,0.75927 -0.50031,-0.13154 -0.0493,-0.8361 0.10128,-1.06989 0.0777,-0.12057 0.1554,-0.24101 0.23317,-0.36131 0.48002,-0.73766 0.95211,-1.4599 1.41753,-2.16559 0.52972,-0.80319 0.83699,-1.26475 0.60655,-2.00328 -0.19596,-0.5976 -0.69934,-0.99762 -1.36591,-1.20914 -1.11983,-0.35535 -2.44634,-0.0897 -3.06115,0.81539 -0.29779,0.4384 -0.17923,0.77089 0.17186,0.87815 0.3646,0.11139 0.8126,-0.0962 1.05922,-0.46134 0.40786,-0.60381 -0.14854,-0.85893 -0.14854,-0.85893 0.60798,-0.24692 1.33207,-0.16462 1.71971,-0.0428 0.68172,0.21419 1.10304,0.94755 0.28168,2.18314 -0.10268,0.15445 -0.20564,0.30968 -0.3089,0.4657 -0.75388,-0.18435 -1.81758,-0.41643 -3.03797,-0.22192 -1.10912,0.18347 -1.86122,0.69567 -2.30985,1.21466 -0.0833,0.0966 -0.1558,0.19318 -0.21775,0.28756 -0.80335,1.22389 0.27629,2.01045 1.20513,2.26385 1.15067,0.31393 2.19997,-0.36108 2.6586,-0.71992 -0.32859,0.63602 -0.26451,1.2761 0.33427,1.43266 0.34812,0.091 1.36418,0.0937 2.10882,-1.06894 z m -1.90932,-1.41163 c -0.079,0.12083 -0.16102,0.23292 -0.2453,0.33676 -0.89789,1.10973 -2.05359,1.23808 -2.61094,1.0851 -0.65049,-0.17855 -0.93001,-0.85809 -0.44441,-1.60077 0.0638,-0.0976 0.13575,-0.1934 0.21572,-0.28635 0.73195,-0.84892 2.09687,-1.43167 4.0272,-0.96943 -0.31114,0.47142 -0.62511,0.94976 -0.94227,1.43469 z"
             inkscape:original-d="m 179.25,211.89529 0,-0.896 -0.448,0 0,0.88 c 0,0.176 0,0.976 -0.576,0.976 -0.576,0 -0.576,-0.768 -0.576,-1.024 l 0,-2.8 c 0,-0.912 0,-1.456 -0.72,-2.112 -0.592,-0.528 -1.36,-0.768 -2.16,-0.768 -1.344,0 -2.464,0.672 -2.464,1.696 0,0.496 0.336,0.768 0.752,0.768 0.432,0 0.736,-0.32 0.736,-0.736 0,-0.688 -0.72,-0.768 -0.72,-0.768 0.432,-0.416 1.2,-0.56 1.664,-0.56 0.816,0 1.728,0.608 1.728,2.016 l 0,0.528 c -0.864,0.032 -2.064,0.112 -3.136,0.624 -1.152,0.56 -1.504,1.392 -1.504,2.032 0,1.312 1.552,1.744 2.624,1.744 1.328,0 1.936,-0.88 2.16,-1.328 0.08,0.672 0.544,1.248 1.232,1.248 0.4,0 1.408,-0.24 1.408,-1.52 m -2.784,-0.832 c 0,1.552 -1.2,2.032 -1.904,2.032 -0.752,0 -1.456,-0.544 -1.456,-1.344 0,-1.056 0.912,-2.176 3.36,-2.272 l 0,1.584" />
        </g>
        <g
           id="text3512"
           style="font-size:16px;font-style:normal;font-variant:normal;font-weight:normal;font-stretch:normal;text-align:center;line-height:125%;writing-mode:lr-tb;text-anchor:middle;fill:#ffffff;fill-opacity:1;stroke:none;font-family:LMRoman9;-inkscape-font-specification:LMRoman9">
          <path
             id="path4862"
             d="m 236.10534,227.38529 c 0.74114,-1.47864 -0.2634,-2.59219 -2.02917,-2.75749 -1.0006,-0.0937 -1.86578,0.19599 -2.36313,0.45045 0.55875,-1.12139 1.03434,-2.11475 1.43513,-2.97263 -0.72551,-0.0503 -1.45018,-0.10312 -2.17401,-0.15836 -0.0417,0.0866 -0.0841,0.17456 -0.12723,0.26379 0.97954,0.11711 1.08718,0.18081 0.87388,0.62377 -0.69394,1.44114 -1.56569,3.19001 -2.64502,5.22004 -0.25323,0.48801 -0.50722,0.98008 -0.76204,1.47614 0.13981,0.0125 0.27966,0.0249 0.41955,0.0372 0.31646,-0.24049 0.63224,-0.47976 0.94734,-0.71781 0.181,0.59106 0.75271,1.00798 1.56542,1.07252 1.30191,0.10339 2.85592,-0.44722 3.91094,-1.3631 0.40595,-0.35315 0.73625,-0.75133 0.94834,-1.17448 z m -1.28002,-0.1107 c -0.19333,0.38293 -0.4556,0.80966 -0.81698,1.19901 -0.15968,0.17267 -0.33825,0.33571 -0.53853,0.48123 -0.53044,0.37093 -1.34344,0.71213 -2.1401,0.64809 -0.67642,-0.0544 -1.09329,-0.40444 -1.2153,-0.89725 -0.0749,-0.2802 -0.0683,-0.29276 0.0533,-0.52847 0.004,-0.007 0.007,-0.0145 0.0112,-0.0218 0.45073,-0.85233 0.86442,-1.65463 1.24327,-2.40493 0.10731,-0.21251 0.11271,-0.22319 0.36214,-0.3819 0.75215,-0.45291 1.54871,-0.54186 2.10862,-0.48987 0.63359,0.0588 1.10714,0.35466 1.27055,0.842 0.15812,0.49816 -0.14668,1.17454 -0.33821,1.55387 z"
             inkscape:original-d="m 238.50282,209.86329 c 0,-2 -1.584,-3.616 -3.504,-3.616 -1.088,0 -1.84,0.56 -2.224,0.992 l 0,-5.024 -2.368,0.176 0,0.496 c 1.088,0 1.232,0.112 1.232,0.896 l 0,9.536 0.448,0 0.592,-0.976 c 0.496,0.704 1.296,1.152 2.16,1.152 1.904,0 3.664,-1.536 3.664,-3.632 m -1.376,-0.016 c 0,0.752 -0.096,1.6 -0.512,2.24 -0.352,0.512 -1.008,1.008 -1.856,1.008 -0.72,0 -1.328,-0.384 -1.712,-0.976 -0.224,-0.336 -0.224,-0.352 -0.224,-0.656 l 0,-3.248 c 0,-0.304 0,-0.32 0.176,-0.576 0.544,-0.736 1.328,-0.992 1.936,-0.992 0.688,0 1.328,0.384 1.744,1.056 0.416,0.688 0.448,1.632 0.448,2.144" />
        </g>
        <g
           id="text3516"
           style="font-size:16px;font-style:normal;font-variant:normal;font-weight:normal;font-stretch:normal;text-align:center;line-height:125%;writing-mode:lr-tb;text-anchor:middle;fill:#ffffff;fill-opacity:1;stroke:none;font-family:LMRoman9;-inkscape-font-specification:LMRoman9">
          <path
             id="path4865"
             d="m 292.16059,227.88324 c 0.0551,-0.14579 -0.12359,-0.12921 -0.17221,-0.12485 -0.15575,0.014 -0.18194,0.0336 -0.30333,0.18204 0,0 0,0 0,0 -0.017,0.021 -0.036,0.0446 -0.0575,0.0712 -0.66942,0.85153 -1.69402,1.24528 -2.5203,1.31358 -0.75869,0.0627 -1.54735,-0.20243 -1.66152,-1.03079 -0.0331,-0.31199 0.0209,-0.69533 0.18543,-1.14798 0.32316,-0.88912 0.80957,-1.43462 1.35129,-1.78988 0.54172,-0.35526 1.1356,-0.51607 1.6175,-0.55796 0.20883,-0.0182 1.07245,-0.0774 1.59167,0.12169 -0.35056,0.0714 -0.71419,0.23988 -0.81117,0.54367 -0.0869,0.27237 0.16265,0.46152 0.5822,0.42385 0.41956,-0.0377 0.82143,-0.25558 0.92392,-0.58055 0.20497,-0.64994 -0.82541,-0.90371 -2.23827,-0.78031 -2.05508,0.1795 -3.88041,1.31162 -4.40296,2.73623 -0.14871,0.40543 -0.17183,0.78905 -0.0874,1.12953 0.2471,0.87023 1.27831,1.39586 2.66347,1.28222 2.17884,-0.17876 3.23063,-1.58846 3.33172,-1.77638 0.004,-0.007 0.006,-0.0117 0.007,-0.0153 z"
             inkscape:original-d="m 296.51565,211.41529 c 0,-0.192 -0.176,-0.192 -0.224,-0.192 -0.176,0 -0.176,0.032 -0.272,0.304 -0.36799,1.104 -1.264,1.52 -2.08,1.52 -1.02399,0 -2.336,-0.832 -2.336,-3.2 0,-2.496 1.28001,-3.248 2.24,-3.248 0.208,0 1.07201,0.032 1.664,0.432 -0.33599,0.064 -0.656,0.288 -0.656,0.752 0,0.416 0.32001,0.736 0.736,0.736 0.416,0 0.752,-0.272 0.752,-0.768 0,-0.992 -1.12,-1.6 -2.528,-1.6 -2.04799,0 -3.584,1.712 -3.584,3.712 0,2.064 1.66401,3.632 3.552,3.632 2.224,0 2.736,-1.936 2.736,-2.08" />
        </g>
        <g
           id="text3520"
           style="font-size:16px;font-style:normal;font-variant:normal;font-weight:normal;font-stretch:normal;text-align:center;line-height:125%;writing-mode:lr-tb;text-anchor:middle;fill:#ffffff;fill-opacity:1;stroke:none;font-family:LMRoman9;-inkscape-font-specification:LMRoman9">
          <path
             id="path4868"
             d="m 354.63725,219.09004 c 0.0381,-0.13776 0.0761,-0.27543 0.11409,-0.41301 -1.18573,0.27434 -1.31558,0.215 -1.1364,-0.43343 0.0375,-0.13567 0.0749,-0.27124 0.11229,-0.40671 0.72706,-2.56343 1.31249,-4.95572 1.76557,-7.16856 -0.87604,0.27021 -1.75026,0.53669 -2.6227,0.79949 -0.0237,0.11717 -0.0478,0.2349 -0.0723,0.35319 1.18971,-0.30193 1.3344,-0.26732 1.20911,0.30806 -0.18155,0.83373 -0.38205,1.69268 -0.602,2.57642 -0.0685,-0.0538 -0.69383,-0.51519 -2.04972,-0.19183 -2.13812,0.50992 -4.25556,2.08518 -4.71028,3.73062 -0.12279,0.44432 -0.1107,0.84268 0.0148,1.1777 0,0 0,0 0,0 0.33773,0.85509 1.45612,1.26459 2.94521,0.9373 1.26638,-0.27835 2.20774,-1.02332 2.5978,-1.37172 -0.0783,0.28183 -0.15683,0.5641 -0.23561,0.84681 0.88885,-0.2452 1.77888,-0.4933 2.67009,-0.74433 z m -2.1891,-0.98646 c -0.003,0.0103 -0.006,0.0202 -0.009,0.0299 0,0 0,0 0,0 -0.059,0.21143 -0.0829,0.26169 -0.40602,0.58333 -0.70363,0.71573 -1.573,1.14481 -2.26692,1.29799 -0.74595,0.16467 -1.35008,-1.2e-4 -1.64616,-0.44986 -0.0795,-0.12582 -0.124,-0.27356 -0.14439,-0.43023 -0.0489,-0.425 0.0692,-0.90734 0.15144,-1.20592 0.16586,-0.60228 0.44397,-1.28844 1.01925,-1.88494 0.48101,-0.48197 1.28341,-1.02404 2.20439,-1.24257 0.72984,-0.17318 1.36461,-0.0848 1.7144,0.27875 0.15827,0.15047 0.15518,0.163 0.0933,0.40324 -0.21915,0.85136 -0.45595,1.72493 -0.71081,2.62035 z"
             inkscape:original-d="m 356.33644,213.31929 0,-0.496 c -1.088,0 -1.232,-0.112 -1.232,-0.896 l 0,-9.712 -2.368,0.176 0,0.496 c 1.088,0 1.232,0.112 1.232,0.896 l 0,3.408 c -0.08,-0.096 -0.8,-0.944 -2.048,-0.944 -1.968,0 -3.68,1.568 -3.68,3.632 0,2 1.6,3.616 3.504,3.616 1.168,0 1.888,-0.688 2.176,-1.024 l 0,1.024 2.416,-0.176 m -2.416,-1.92 c 0,0.288 0,0.336 -0.24,0.672 -0.496,0.72 -1.232,1.024 -1.872,1.024 -0.688,0 -1.328,-0.384 -1.744,-1.056 -0.416,-0.688 -0.448,-1.632 -0.448,-2.144 0,-0.752 0.096,-1.6 0.512,-2.24 0.352,-0.512 1.008,-1.008 1.856,-1.008 0.672,0 1.312,0.336 1.744,0.944 0.192,0.256 0.192,0.272 0.192,0.576 l 0,3.232" />
        </g>
      </g>
    </g>
    <g
       transform="matrix(1,0,-0.38262709,0.31026433,65.202822,127.01089)"
       inkscape:path-effect="#path-effect4842"
       id="g4898"
       style="opacity:0.4435484;fill:#000000;filter:url(#filter4916)"
       clip-path="url(#clipPath5210)">
      <path
         inkscape:original-d="m 345.17838,238.16038 -39.84,116.64 -23.36,0 -40,-116.64 26.72,0 24.8,87.2 25.28,-87.2 26.4,0"
         id="path4900"
         style="font-size:160px;font-style:normal;font-variant:normal;font-weight:bold;font-stretch:normal;text-align:start;line-height:100%;writing-mode:lr-tb;text-anchor:start;fill:#000000;fill-opacity:1;stroke:none;font-family:MgOpen Moderna;-inkscape-font-specification:MgOpen Moderna Bold"
         d="m 358.04882,225.20306 c -28.71559,29.72389 -52.11277,63.62559 -70.19155,101.70512 -4.9461,1.51257 -10.15639,3.72797 -15.63086,6.64619 -3.29979,-31.7539 -13.48549,-63.58915 -30.5571,-95.50577 11.37914,-4.66019 22.41262,-8.40084 33.10045,-11.22193 6.89552,25.38822 10.66063,50.57569 11.29532,75.56243 12.47427,-29.07991 27.52662,-56.3246 45.15704,-81.73408 9.27966,0.61836 18.22189,2.13437 26.8267,4.54804 z" />
      <path
         inkscape:original-d="m 411.85789,304.43649 c 1.63941,10.73305 -0.079,20.44554 -5.15506,29.13754 -5.01118,8.55596 -12.64651,14.64471 -22.90602,18.26628 -12.27127,4.33171 -23.73212,3.90922 -34.38259,-1.26747 -10.58542,-5.31276 -18.06173,-14.15504 -22.42893,-26.52689 -4.33169,-12.27118 -4.40029,-23.84148 -0.20583,-34.7109 4.51988,-11.54974 12.81484,-19.45499 24.88491,-23.71577 10.66188,-3.76349 20.50443,-4.24028 29.52773,-1.43035 9.02321,2.81014 16.63547,8.83307 22.83678,18.06881 l -23.38575,8.25508 c -2.75744,-3.32505 -5.95261,-5.64723 -9.58556,-6.96657 -4.04128,-1.51443 -8.02329,-1.57932 -11.94604,-0.19467 -5.93445,2.09491 -9.77129,6.4469 -11.5105,13.05599 -1.51442,5.96425 -1.15319,12.11476 1.08368,18.45149 2.37886,6.73916 5.81087,11.97535 10.296,15.7086 5.47915,4.6267 11.38713,5.8216 17.72396,3.58472 4.42564,-1.56222 7.73299,-4.3699 9.92206,-8.42305 2.18897,-4.05308 3.05556,-8.48776 2.59978,-13.30406 l 22.63138,-7.98878"
         id="path4902"
         style="font-size:160px;font-style:normal;font-variant:normal;font-weight:bold;font-stretch:normal;text-align:start;line-height:100%;writing-mode:lr-tb;text-anchor:start;fill:#000000;fill-opacity:1;stroke:none;font-family:MgOpen Moderna;-inkscape-font-specification:MgOpen Moderna Bold"
         d="m 372.61169,311.46179 c -3.14808,4.68499 -6.61489,8.57061 -10.24928,11.71116 -3.63439,3.14055 -7.43637,5.53604 -11.32194,7.32815 -3.82784,1.75956 -7.42964,2.75016 -10.84363,3.12168 -3.41399,0.37152 -6.64018,0.12395 -9.79656,-0.55305 -7.55063,-1.6195 -12.18886,-4.78723 -15.58681,-10.82039 -1.65328,-3.06962 -2.82101,-6.51627 -3.45506,-10.59936 -0.63405,-4.08308 -0.73443,-8.8026 -0.18757,-14.29991 0.54241,-5.45257 1.59527,-10.74691 3.4207,-15.88342 1.82544,-5.13651 4.42346,-10.11519 7.97037,-14.7877 3.79502,-4.96303 8.2164,-8.95656 13.2442,-11.74957 5.02779,-2.793 10.66201,-4.3855 16.71451,-4.46521 10.69263,-0.14065 19.22335,3.73971 24.64512,10.67444 5.42159,6.93485 7.30249,16.5356 5.35909,27.85745 -6.68858,-3.07135 -13.38906,-5.34968 -20.10145,-6.835 -0.0363,-4.00429 -1.05654,-7.35916 -3.01992,-9.94026 -2.16037,-2.9097 -5.15396,-4.43836 -8.77033,-4.53077 -2.73552,-0.0698 -5.32884,0.61434 -7.72762,1.97005 -2.39878,1.3557 -4.60301,3.38294 -6.61658,6.0228 -3.59335,4.77632 -5.75636,10.13552 -6.9171,15.98085 -1.23451,6.21654 -1.36606,11.3366 -0.50177,15.60717 1.02552,5.27247 3.42582,8.00887 7.83358,8.6304 3.07838,0.43409 6.26372,-0.33102 9.68738,-2.54044 3.42357,-2.20941 6.48216,-5.27726 9.01007,-9.35188 5.74801,1.7416 11.48488,4.22587 17.2106,7.45281 z" />
    </g>
    <g
       id="g3997"
       inkscape:path-effect="#path-effect4842"
       transform="translate(-61.377154,-104.359)">
      <path
         d="m 358.04882,225.20306 c -28.71559,29.72389 -52.11277,63.62559 -70.19155,101.70512 -4.9461,1.51257 -10.15639,3.72797 -15.63086,6.64619 -3.29979,-31.7539 -13.48549,-63.58915 -30.5571,-95.50577 11.37914,-4.66019 22.41262,-8.40084 33.10045,-11.22193 6.89552,25.38822 10.66063,50.57569 11.29532,75.56243 12.47427,-29.07991 27.52662,-56.3246 45.15704,-81.73408 9.27966,0.61836 18.22189,2.13437 26.8267,4.54804 z"
         style="font-size:160px;font-style:normal;font-variant:normal;font-weight:bold;font-stretch:normal;text-align:start;line-height:100%;writing-mode:lr-tb;text-anchor:start;fill:#000000;fill-opacity:1;stroke:none;font-family:MgOpen Moderna;-inkscape-font-specification:MgOpen Moderna Bold"
         id="path3991"
         inkscape:original-d="m 345.17838,238.16038 -39.84,116.64 -23.36,0 -40,-116.64 26.72,0 24.8,87.2 25.28,-87.2 26.4,0" />
      <path
         d="m 372.61169,311.46179 c -3.14808,4.68499 -6.61489,8.57061 -10.24928,11.71116 -3.63439,3.14055 -7.43637,5.53604 -11.32194,7.32815 -3.82784,1.75956 -7.42964,2.75016 -10.84363,3.12168 -3.41399,0.37152 -6.64018,0.12395 -9.79656,-0.55305 -7.55063,-1.6195 -12.18886,-4.78723 -15.58681,-10.82039 -1.65328,-3.06962 -2.82101,-6.51627 -3.45506,-10.59936 -0.63405,-4.08308 -0.73443,-8.8026 -0.18757,-14.29991 0.54241,-5.45257 1.59527,-10.74691 3.4207,-15.88342 1.82544,-5.13651 4.42346,-10.11519 7.97037,-14.7877 3.79502,-4.96303 8.2164,-8.95656 13.2442,-11.74957 5.02779,-2.793 10.66201,-4.3855 16.71451,-4.46521 10.69263,-0.14065 19.22335,3.73971 24.64512,10.67444 5.42159,6.93485 7.30249,16.5356 5.35909,27.85745 -6.68858,-3.07135 -13.38906,-5.34968 -20.10145,-6.835 -0.0363,-4.00429 -1.05654,-7.35916 -3.01992,-9.94026 -2.16037,-2.9097 -5.15396,-4.43836 -8.77033,-4.53077 -2.73552,-0.0698 -5.32884,0.61434 -7.72762,1.97005 -2.39878,1.3557 -4.60301,3.38294 -6.61658,6.0228 -3.59335,4.77632 -5.75636,10.13552 -6.9171,15.98085 -1.23451,6.21654 -1.36606,11.3366 -0.50177,15.60717 1.02552,5.27247 3.42582,8.00887 7.83358,8.6304 3.07838,0.43409 6.26372,-0.33102 9.68738,-2.54044 3.42357,-2.20941 6.48216,-5.27726 9.01007,-9.35188 5.74801,1.7416 11.48488,4.22587 17.2106,7.45281 z"
         style="font-size:160px;font-style:normal;font-variant:normal;font-weight:bold;font-stretch:normal;text-align:start;line-height:100%;writing-mode:lr-tb;text-anchor:start;fill:#666666;fill-opacity:1;stroke:none;font-family:MgOpen Moderna;-inkscape-font-specification:MgOpen Moderna Bold"
         id="path3993"
         inkscape:original-d="m 411.85789,304.43649 c 1.63941,10.73305 -0.079,20.44554 -5.15506,29.13754 -5.01118,8.55596 -12.64651,14.64471 -22.90602,18.26628 -12.27127,4.33171 -23.73212,3.90922 -34.38259,-1.26747 -10.58542,-5.31276 -18.06173,-14.15504 -22.42893,-26.52689 -4.33169,-12.27118 -4.40029,-23.84148 -0.20583,-34.7109 4.51988,-11.54974 12.81484,-19.45499 24.88491,-23.71577 10.66188,-3.76349 20.50443,-4.24028 29.52773,-1.43035 9.02321,2.81014 16.63547,8.83307 22.83678,18.06881 l -23.38575,8.25508 c -2.75744,-3.32505 -5.95261,-5.64723 -9.58556,-6.96657 -4.04128,-1.51443 -8.02329,-1.57932 -11.94604,-0.19467 -5.93445,2.09491 -9.77129,6.4469 -11.5105,13.05599 -1.51442,5.96425 -1.15319,12.11476 1.08368,18.45149 2.37886,6.73916 5.81087,11.97535 10.296,15.7086 5.47915,4.6267 11.38713,5.8216 17.72396,3.58472 4.42564,-1.56222 7.73299,-4.3699 9.92206,-8.42305 2.18897,-4.05308 3.05556,-8.48776 2.59978,-13.30406 l 22.63138,-7.98878" />
    </g>
  </g>
</svg>
